<mxfile host="Electron" agent="Mozilla/5.0 (X11; Linux x86_64) AppleWebKit/537.36 (KHTML, like Gecko) draw.io/26.0.16 Chrome/132.0.6834.196 Electron/34.2.0 Safari/537.36" version="26.0.16">
  <diagram id="d2PN6w6fKUq8cv_ohd9x" name="Page-1">
    <mxGraphModel dx="1416" dy="844" grid="1" gridSize="10" guides="1" tooltips="1" connect="1" arrows="1" fold="1" page="1" pageScale="1" pageWidth="850" pageHeight="1100" math="0" shadow="0">
      <root>
        <mxCell id="0" />
        <mxCell id="1" parent="0" />
        <mxCell id="XsEBUBP-LL8jft2bZNag-1" value="" style="rounded=0;whiteSpace=wrap;html=1;strokeColor=none;" vertex="1" parent="1">
          <mxGeometry x="80" y="200" width="600" height="60" as="geometry" />
        </mxCell>
        <mxCell id="zVG6wsgCgW5nMEGBHIOK-1" value="&lt;b&gt;Idle&lt;/b&gt;&lt;br&gt;core.gnt=1&lt;br&gt;wb.cyc=0" style="ellipse;whiteSpace=wrap;html=1;fontSize=16;" parent="1" vertex="1">
          <mxGeometry x="150" y="190" width="120" height="80" as="geometry" />
        </mxCell>
        <mxCell id="zVG6wsgCgW5nMEGBHIOK-2" value="&lt;b&gt;Transaction Ongoing&lt;br&gt;&lt;/b&gt;core.gnt=0&lt;br&gt;wb.cyc=1" style="ellipse;whiteSpace=wrap;html=1;fontSize=16;" parent="1" vertex="1">
          <mxGeometry x="460" y="180" width="150" height="100" as="geometry" />
        </mxCell>
        <mxCell id="zVG6wsgCgW5nMEGBHIOK-3" value="WB Slave response ACK or ERR=1" style="endArrow=classic;html=1;rounded=0;fontSize=16;curved=1;" parent="1" source="zVG6wsgCgW5nMEGBHIOK-2" target="zVG6wsgCgW5nMEGBHIOK-1" edge="1">
          <mxGeometry x="-0.1318" y="-22" width="50" height="50" relative="1" as="geometry">
            <mxPoint x="370" y="480" as="sourcePoint" />
            <mxPoint x="420" y="430" as="targetPoint" />
            <Array as="points">
              <mxPoint x="350" y="360" />
            </Array>
            <mxPoint as="offset" />
          </mxGeometry>
        </mxCell>
        <mxCell id="zVG6wsgCgW5nMEGBHIOK-4" value="Ibex core.req=1 &lt;br&gt;-&amp;gt; Issue Single Access Pipelined WB transaction" style="endArrow=classic;html=1;rounded=0;fontSize=16;curved=1;labelBackgroundColor=none;" parent="1" source="zVG6wsgCgW5nMEGBHIOK-1" target="zVG6wsgCgW5nMEGBHIOK-2" edge="1">
          <mxGeometry x="0.0777" y="-4" width="50" height="50" relative="1" as="geometry">
            <mxPoint x="310" y="220" as="sourcePoint" />
            <mxPoint x="360" y="170" as="targetPoint" />
            <Array as="points">
              <mxPoint x="360" y="130" />
            </Array>
            <mxPoint as="offset" />
          </mxGeometry>
        </mxCell>
      </root>
    </mxGraphModel>
  </diagram>
</mxfile>
